<svg width="428" height="186" viewBox="0 0 428 186" fill="none" xmlns="http://www.w3.org/2000/svg">
<mask id="path-1-outside-1_21912_206" maskUnits="userSpaceOnUse" x="230.215" y="59.3347" width="196.915" height="104.41" fill="black">
<rect fill="white" x="230.215" y="59.3347" width="196.915" height="104.41"/>
<path d="M266.873 158.296L247.987 161.856L246.446 110.153L235.253 112.263L234.758 94.7068L275.985 86.9357L276.48 104.492L265.332 106.593L266.873 158.296ZM284.792 154.918L282.756 85.6594L301.55 82.1168L303.54 151.384L284.792 154.918ZM326.289 95.4367L326.204 147.112L310.035 150.16L312.836 79.9895L334.808 75.8479L341.678 111.282L346.416 73.6598L368.297 69.5355L375.216 137.874L359.001 140.93L355.742 89.9806L349.19 142.78L336.476 145.176L326.289 95.4367ZM381.112 136.763L379.122 67.4951L412.426 61.2174L412.92 78.0103L398.41 80.7453L398.597 89.5824L411.725 87.1078L412.253 103.322L399.125 105.796L399.35 115.342L413.906 112.598L414.416 130.485L381.112 136.763Z"/>
</mask>
<path d="M266.873 158.296L267.059 159.279L267.898 159.12L267.873 158.266L266.873 158.296ZM247.987 161.856L246.988 161.886L247.023 163.055L248.173 162.838L247.987 161.856ZM246.446 110.153L247.446 110.123L247.411 108.953L246.261 109.17L246.446 110.153ZM235.253 112.263L234.253 112.291L234.286 113.463L235.438 113.245L235.253 112.263ZM234.758 94.7068L234.572 93.7241L233.734 93.8822L233.758 94.735L234.758 94.7068ZM275.985 86.9357L276.984 86.9076L276.951 85.7359L275.8 85.9531L275.985 86.9357ZM276.48 104.492L276.665 105.474L277.503 105.316L277.479 104.463L276.48 104.492ZM265.332 106.593L265.147 105.61L264.307 105.768L264.333 106.623L265.332 106.593ZM266.873 158.296L266.688 157.313L247.802 160.873L247.987 161.856L248.173 162.838L267.059 159.279L266.873 158.296ZM247.987 161.856L248.987 161.826L247.446 110.123L246.446 110.153L245.447 110.183L246.988 161.886L247.987 161.856ZM246.446 110.153L246.261 109.17L235.067 111.28L235.253 112.263L235.438 113.245L246.631 111.135L246.446 110.153ZM235.253 112.263L236.252 112.235L235.757 94.6786L234.758 94.7068L233.758 94.735L234.253 112.291L235.253 112.263ZM234.758 94.7068L234.943 95.6895L276.17 87.9184L275.985 86.9357L275.8 85.9531L234.572 93.7241L234.758 94.7068ZM275.985 86.9357L274.985 86.9639L275.48 104.52L276.48 104.492L277.479 104.463L276.984 86.9076L275.985 86.9357ZM276.48 104.492L276.294 103.509L265.147 105.61L265.332 106.593L265.517 107.576L276.665 105.474L276.48 104.492ZM265.332 106.593L264.333 106.623L265.874 158.326L266.873 158.296L267.873 158.266L266.332 106.563L265.332 106.593ZM284.792 154.918L283.793 154.948L283.827 156.118L284.978 155.901L284.792 154.918ZM282.756 85.6594L282.571 84.6767L281.732 84.8349L281.757 85.6888L282.756 85.6594ZM301.55 82.1168L302.55 82.0881L302.516 80.9171L301.365 81.1341L301.55 82.1168ZM303.54 151.384L303.725 152.367L304.564 152.209L304.54 151.356L303.54 151.384ZM284.792 154.918L285.792 154.889L283.756 85.63L282.756 85.6594L281.757 85.6888L283.793 154.948L284.792 154.918ZM282.756 85.6594L282.941 86.6421L301.735 83.0995L301.55 82.1168L301.365 81.1341L282.571 84.6767L282.756 85.6594ZM301.55 82.1168L300.551 82.1455L302.541 151.413L303.54 151.384L304.54 151.356L302.55 82.0881L301.55 82.1168ZM303.54 151.384L303.355 150.402L284.607 153.936L284.792 154.918L284.978 155.901L303.725 152.367L303.54 151.384ZM326.289 95.4367L327.269 95.2361L325.289 95.4351L326.289 95.4367ZM326.204 147.112L326.389 148.095L327.202 147.942L327.204 147.114L326.204 147.112ZM310.035 150.16L309.036 150.12L308.986 151.376L310.22 151.143L310.035 150.16ZM312.836 79.9895L312.651 79.0068L311.868 79.1543L311.837 79.9497L312.836 79.9895ZM334.808 75.8479L335.79 75.6575L335.601 74.6809L334.623 74.8652L334.808 75.8479ZM341.678 111.282L340.697 111.473L342.67 111.407L341.678 111.282ZM346.416 73.6598L346.231 72.6771L345.515 72.8121L345.424 73.5349L346.416 73.6598ZM368.297 69.5355L369.292 69.4348L369.182 68.351L368.111 68.5528L368.297 69.5355ZM375.216 137.874L375.401 138.857L376.303 138.687L376.21 137.773L375.216 137.874ZM359.001 140.93L358.003 140.994L358.075 142.122L359.186 141.913L359.001 140.93ZM355.742 89.9806L356.739 89.9167L354.749 89.8574L355.742 89.9806ZM349.19 142.78L349.375 143.762L350.092 143.627L350.182 142.903L349.19 142.78ZM336.476 145.176L335.496 145.377L335.694 146.341L336.661 146.159L336.476 145.176ZM326.289 95.4367L325.289 95.4351L325.204 147.111L326.204 147.112L327.204 147.114L327.289 95.4384L326.289 95.4367ZM326.204 147.112L326.018 146.13L309.85 149.177L310.035 150.16L310.22 151.143L326.389 148.095L326.204 147.112ZM310.035 150.16L311.034 150.2L313.835 80.0294L312.836 79.9895L311.837 79.9497L309.036 150.12L310.035 150.16ZM312.836 79.9895L313.021 80.9722L334.994 76.8306L334.808 75.8479L334.623 74.8652L312.651 79.0068L312.836 79.9895ZM334.808 75.8479L333.827 76.0382L340.697 111.473L341.678 111.282L342.66 111.092L335.79 75.6575L334.808 75.8479ZM341.678 111.282L342.67 111.407L347.409 73.7848L346.416 73.6598L345.424 73.5349L340.686 111.157L341.678 111.282ZM346.416 73.6598L346.602 74.6425L368.482 70.5182L368.297 69.5355L368.111 68.5528L346.231 72.6771L346.416 73.6598ZM368.297 69.5355L367.302 69.6362L374.221 137.975L375.216 137.874L376.21 137.773L369.292 69.4348L368.297 69.5355ZM375.216 137.874L375.03 136.891L358.816 139.948L359.001 140.93L359.186 141.913L375.401 138.857L375.216 137.874ZM359.001 140.93L359.999 140.867L356.739 89.9167L355.742 89.9806L354.744 90.0444L358.003 140.994L359.001 140.93ZM355.742 89.9806L354.749 89.8574L348.197 142.657L349.19 142.78L350.182 142.903L356.734 90.1037L355.742 89.9806ZM349.19 142.78L349.004 141.797L336.291 144.194L336.476 145.176L336.661 146.159L349.375 143.762L349.19 142.78ZM336.476 145.176L337.456 144.976L327.269 95.2361L326.289 95.4367L325.31 95.6373L335.496 145.377L336.476 145.176ZM381.112 136.763L380.112 136.791L380.146 137.962L381.297 137.745L381.112 136.763ZM379.122 67.4951L378.936 66.5124L378.098 66.6705L378.122 67.5238L379.122 67.4951ZM412.426 61.2174L413.425 61.188L413.391 60.0179L412.241 60.2347L412.426 61.2174ZM412.92 78.0103L413.105 78.9929L413.945 78.8347L413.92 77.9808L412.92 78.0103ZM398.41 80.7453L398.225 79.7626L397.392 79.9195L397.41 80.7665L398.41 80.7453ZM398.597 89.5824L397.597 89.6035L397.622 90.7837L398.782 90.565L398.597 89.5824ZM411.725 87.1078L412.725 87.0752L412.687 85.9089L411.54 86.1251L411.725 87.1078ZM412.253 103.322L412.438 104.304L413.281 104.146L413.253 103.289L412.253 103.322ZM399.125 105.796L398.94 104.814L398.105 104.971L398.125 105.82L399.125 105.796ZM399.35 115.342L398.35 115.365L398.378 116.543L399.535 116.324L399.35 115.342ZM413.906 112.598L414.906 112.569L414.873 111.398L413.721 111.615L413.906 112.598ZM414.416 130.485L414.601 131.468L415.44 131.31L415.415 130.457L414.416 130.485ZM381.112 136.763L382.111 136.734L380.121 67.4663L379.122 67.4951L378.122 67.5238L380.112 136.791L381.112 136.763ZM379.122 67.4951L379.307 68.4778L412.611 62.2001L412.426 61.2174L412.241 60.2347L378.936 66.5124L379.122 67.4951ZM412.426 61.2174L411.426 61.2468L411.92 78.0397L412.92 78.0103L413.92 77.9808L413.425 61.188L412.426 61.2174ZM412.92 78.0103L412.735 77.0276L398.225 79.7626L398.41 80.7453L398.595 81.728L413.105 78.9929L412.92 78.0103ZM398.41 80.7453L397.41 80.7665L397.597 89.6035L398.597 89.5824L399.597 89.5612L399.41 80.7242L398.41 80.7453ZM398.597 89.5824L398.782 90.565L411.91 88.0905L411.725 87.1078L411.54 86.1251L398.412 88.5997L398.597 89.5824ZM411.725 87.1078L410.726 87.1403L411.254 103.354L412.253 103.322L413.253 103.289L412.725 87.0752L411.725 87.1078ZM412.253 103.322L412.068 102.339L398.94 104.814L399.125 105.796L399.31 106.779L412.438 104.304L412.253 103.322ZM399.125 105.796L398.125 105.82L398.35 115.365L399.35 115.342L400.35 115.318L400.125 105.773L399.125 105.796ZM399.35 115.342L399.535 116.324L414.092 113.581L413.906 112.598L413.721 111.615L399.165 114.359L399.35 115.342ZM413.906 112.598L412.907 112.626L413.416 130.513L414.416 130.485L415.415 130.457L414.906 112.569L413.906 112.598ZM414.416 130.485L414.231 129.502L380.927 135.78L381.112 136.763L381.297 137.745L414.601 131.468L414.416 130.485Z" fill="white" mask="url(#path-1-outside-1_21912_206)"/>
<path d="M13.6836 122.922C16.1018 124.278 18.5522 125.216 21.0349 125.734C23.5175 126.251 25.8183 126.311 27.9372 125.911C29.8105 125.558 31.2044 124.771 32.1189 123.549C33.0276 122.296 33.3141 120.78 32.9783 118.998C32.6889 117.463 31.9418 116.03 30.7368 114.699C29.5261 113.337 27.363 111.646 24.2473 109.625C20.4689 107.126 17.758 104.807 16.1147 102.668C14.4713 100.529 13.3804 98.0314 12.8421 95.1755C11.6323 88.7572 12.6982 83.2775 16.0398 78.7362C19.4122 74.1891 24.5839 71.2585 31.5548 69.9445C34.3801 69.412 37.1279 69.2279 39.7984 69.3924C42.463 69.5261 45.2403 70.0043 48.1302 70.827L48.5495 87.7293C46.2564 86.6987 44.0731 85.9973 41.9995 85.6249C39.9566 85.2468 38.0599 85.2227 36.3095 85.5527C34.7433 85.8479 33.5778 86.4969 32.8128 87.4997C32.0727 88.466 31.8358 89.6555 32.1021 91.0681C32.461 92.972 34.6996 95.3167 38.8181 98.102C39.3291 98.4509 39.7305 98.725 40.0225 98.9244C44.1717 101.704 47.0306 104.218 48.5992 106.466C50.1678 108.715 51.256 111.451 51.8638 114.675C53.2183 121.861 52.0599 127.947 48.3885 132.932C44.7478 137.911 39.0734 141.127 31.3654 142.58C28.0795 143.2 24.8873 143.388 21.7887 143.145C18.7266 142.927 16.0673 142.316 13.8107 141.31L13.6836 122.922ZM74.6406 78.6137L75.0959 93.9351C75.3532 93.9502 75.6229 93.9471 75.905 93.9257C76.1814 93.8736 76.5192 93.8099 76.9184 93.7347C79.5901 93.2311 81.4357 92.0564 82.4552 90.2106C83.5054 88.359 83.7266 85.821 83.1189 82.5965C82.7831 80.8154 81.9786 79.5837 80.7052 78.9016C79.426 78.1887 77.7269 78.0319 75.608 78.4313L74.6406 78.6137ZM57.4274 136.094L55.4374 66.8261L71.5597 63.7871C80.5575 62.0911 87.3333 62.3562 91.8869 64.5825C96.4348 66.7781 99.3339 71.1925 100.584 77.8257C102.165 86.2093 101 93.1068 97.0911 98.5183C93.207 103.893 86.8582 107.411 78.0447 109.073C77.7683 109.125 77.3355 109.191 76.7462 109.27C76.1876 109.343 75.7702 109.406 75.4938 109.458L76.2214 132.551L57.4274 136.094ZM125.105 100.107C125.579 102.625 126.264 104.404 127.16 105.443C128.05 106.452 129.232 106.818 130.706 106.54C132.026 106.291 133.064 105.555 133.819 104.331C134.605 103.102 135.165 101.263 135.498 98.8155C135.95 95.6457 136.087 91.8993 135.908 87.5763C135.754 83.2169 135.318 79.1332 134.6 75.3253C134.126 72.8071 133.456 71.0254 132.591 69.98C131.72 68.9039 130.61 68.4932 129.258 68.7479C127.815 69.0199 126.685 69.7735 125.868 71.0086C125.077 72.2073 124.542 74.0094 124.264 76.415C123.835 79.7077 123.685 83.552 123.814 87.9479C123.974 92.338 124.404 96.391 125.105 100.107ZM131.842 123.45C125.485 124.649 119.938 123.309 115.2 119.432C110.463 115.555 107.373 109.793 105.932 102.147C104.757 95.9127 104.412 89.6971 104.897 83.4999C105.414 77.297 106.677 71.9389 108.689 67.4258C110.662 63.047 113.235 59.5728 116.407 57.0032C119.611 54.4277 123.485 52.7117 128.03 51.855C134.509 50.6336 140.082 51.9365 144.746 55.7637C149.405 59.5602 152.47 65.3585 153.94 73.1586C155.121 79.4233 155.463 85.6235 154.966 91.7593C154.469 97.895 153.208 103.268 151.183 107.879C149.296 112.21 146.739 115.681 143.511 118.293C140.307 120.869 136.418 122.588 131.842 123.45ZM179.336 74.525L180.349 74.334C183.205 73.7957 185.233 72.4912 186.433 70.4207C187.627 68.3194 187.905 65.5798 187.268 62.2017C186.904 60.2671 186.143 58.9317 184.987 58.1957C183.831 57.4596 182.224 57.2855 180.166 57.6733C180.043 57.6965 179.831 57.7524 179.53 57.841C179.259 57.9238 179.032 57.9825 178.848 58.0173L179.336 74.525ZM161.624 116.453L159.634 47.1857L175.48 44.1988C185.429 42.3234 192.524 42.3377 196.762 44.2418C201.031 46.1401 203.759 50.2369 204.946 56.5323C205.982 62.0292 205.635 66.7692 203.906 70.7523C202.207 74.7296 199.223 77.7089 194.953 79.6903L208.793 107.562L188.894 111.313L179.533 84.9343L180.418 112.911L161.624 116.453ZM239.564 101.762L220.678 105.322L219.136 53.619L207.943 55.7289L207.448 38.173L248.675 30.4019L249.17 47.9578L238.023 50.0591L239.564 101.762ZM254.229 77.5803C256.647 78.9371 259.097 79.8744 261.58 80.3922C264.063 80.9101 266.364 80.9693 268.482 80.5699C270.356 80.2168 271.75 79.4294 272.664 78.2076C273.573 76.9551 273.859 75.4383 273.524 73.6571C273.234 72.1217 272.487 70.6884 271.282 69.3573C270.071 67.9955 267.908 66.3044 264.793 64.2841C261.014 61.7844 258.303 59.4652 256.66 57.3263C255.017 55.1875 253.926 52.6901 253.387 49.8341C252.178 43.4159 253.243 37.9361 256.585 33.3948C259.957 28.8477 265.129 25.9172 272.1 24.6032C274.925 24.0706 277.673 23.8866 280.344 24.051C283.008 24.1848 285.786 24.663 288.675 25.4857L289.095 42.388C286.802 41.3574 284.618 40.6559 282.545 40.2836C280.502 39.9054 278.605 39.8814 276.855 40.2113C275.289 40.5065 274.123 41.1555 273.358 42.1583C272.618 43.1246 272.381 44.3141 272.647 45.7267C273.006 47.6307 275.245 49.9753 279.363 52.7607C279.874 53.1096 280.276 53.3837 280.568 53.5831C284.717 56.3626 287.576 58.8765 289.144 61.1249C290.713 63.3732 291.801 66.1097 292.409 69.3341C293.764 76.5201 292.605 82.6056 288.934 87.5907C285.293 92.57 279.619 95.7861 271.911 97.239C268.625 97.8583 265.433 98.0467 262.334 97.8039C259.272 97.5861 256.613 96.9744 254.356 95.9687L254.229 77.5803Z" fill="white"/>
</svg>
