<svg width="17" height="21" viewBox="0 0 17 21" fill="none" xmlns="http://www.w3.org/2000/svg">
<path d="M16.9898 6.24261C16.9841 6.21625 16.9841 6.18898 16.9898 6.16261C16.985 6.13953 16.985 6.1157 16.9898 6.09261V6.00261L16.9298 5.85261C16.9054 5.81169 16.8751 5.77461 16.8398 5.74261L16.7498 5.66261H16.6998L12.7598 3.17261L9.03982 0.872615C8.95376 0.804345 8.85528 0.753405 8.74982 0.722615H8.66982C8.58044 0.707696 8.48921 0.707696 8.39982 0.722615H8.29982C8.18367 0.748307 8.0723 0.792181 7.96982 0.852615L0.499824 5.50261L0.409824 5.57261L0.319824 5.65261L0.219824 5.72261L0.169824 5.78261L0.109824 5.93261V6.02261V6.08261C0.100111 6.14893 0.100111 6.2163 0.109824 6.28261V15.0126C0.109484 15.1826 0.15246 15.3498 0.234695 15.4985C0.31693 15.6472 0.435711 15.7725 0.579824 15.8626L8.07982 20.5026L8.22982 20.5626H8.30982C8.479 20.6163 8.66064 20.6163 8.82982 20.5626H8.90982L9.05982 20.5026L16.4998 15.9326C16.6439 15.8425 16.7627 15.7172 16.845 15.5685C16.9272 15.4198 16.9702 15.2526 16.9698 15.0826V6.35261C16.9698 6.35261 16.9898 6.28261 16.9898 6.24261ZM8.49982 2.89262L10.2798 3.99261L4.68982 7.45261L2.89982 6.35261L8.49982 2.89262ZM7.49982 17.8926L1.99982 14.5326V8.14261L7.49982 11.5426V17.8926ZM8.49982 9.78262L6.58982 8.63261L12.1798 5.16261L14.0998 6.35261L8.49982 9.78262ZM14.9998 14.5026L9.49982 17.9226V11.5426L14.9998 8.14261V14.5026Z" fill="white"/>
</svg>
