<svg width="15" height="14" viewBox="0 0 15 14" fill="none" xmlns="http://www.w3.org/2000/svg">
<path d="M11.0602 2.57962C10.9019 2.57962 10.7473 2.62654 10.6157 2.71444C10.4841 2.80235 10.3816 2.92729 10.3211 3.07347C10.2605 3.21965 10.2447 3.3805 10.2755 3.53569C10.3064 3.69087 10.3826 3.83342 10.4945 3.9453C10.6064 4.05718 10.7489 4.13338 10.9041 4.16424C11.0593 4.19511 11.2201 4.17927 11.3663 4.11872C11.5125 4.05817 11.6374 3.95563 11.7253 3.82407C11.8132 3.69251 11.8602 3.53784 11.8602 3.37962C11.8602 3.16744 11.7759 2.96396 11.6258 2.81393C11.4758 2.6639 11.2723 2.57962 11.0602 2.57962ZM14.1268 4.19295C14.1139 3.63981 14.0103 3.09255 13.8202 2.57295C13.6507 2.12837 13.3868 1.7258 13.0468 1.39295C12.7167 1.05123 12.3132 0.789067 11.8668 0.626283C11.3486 0.43039 10.8007 0.324423 10.2468 0.312949C9.54016 0.272949 9.3135 0.272949 7.50016 0.272949C5.68683 0.272949 5.46016 0.272949 4.7535 0.312949C4.1996 0.324423 3.65172 0.43039 3.1335 0.626283C2.68795 0.790715 2.28479 1.05266 1.9535 1.39295C1.61178 1.72307 1.34961 2.12658 1.18683 2.57295C0.990937 3.09118 0.884969 3.63905 0.873496 4.19295C0.833496 4.89962 0.833496 5.12628 0.833496 6.93962C0.833496 8.75295 0.833496 8.97962 0.873496 9.68628C0.884969 10.2402 0.990937 10.7881 1.18683 11.3063C1.34961 11.7527 1.61178 12.1562 1.9535 12.4863C2.28479 12.8266 2.68795 13.0885 3.1335 13.2529C3.65172 13.4488 4.1996 13.5548 4.7535 13.5663C5.46016 13.6063 5.68683 13.6063 7.50016 13.6063C9.3135 13.6063 9.54016 13.6063 10.2468 13.5663C10.8007 13.5548 11.3486 13.4488 11.8668 13.2529C12.3132 13.0902 12.7167 12.828 13.0468 12.4863C13.3883 12.1547 13.6524 11.7517 13.8202 11.3063C14.0103 10.7867 14.1139 10.2394 14.1268 9.68628C14.1268 8.97962 14.1668 8.75295 14.1668 6.93962C14.1668 5.12628 14.1668 4.89962 14.1268 4.19295ZM12.9268 9.60628C12.922 10.0295 12.8453 10.4488 12.7002 10.8463C12.5937 11.1364 12.4227 11.3986 12.2002 11.6129C11.9839 11.8333 11.7223 12.0039 11.4335 12.1129C11.036 12.2581 10.6167 12.3348 10.1935 12.3396C9.52683 12.3729 9.28016 12.3796 7.52683 12.3796C5.7735 12.3796 5.52683 12.3796 4.86016 12.3396C4.42076 12.3478 3.98323 12.2802 3.56683 12.1396C3.29068 12.025 3.04107 11.8548 2.8335 11.6396C2.61222 11.4254 2.44339 11.1631 2.34016 10.8729C2.1774 10.4697 2.08712 10.0409 2.0735 9.60628C2.0735 8.93962 2.0335 8.69295 2.0335 6.93962C2.0335 5.18628 2.0335 4.93962 2.0735 4.27295C2.07648 3.84032 2.15546 3.41158 2.30683 3.00628C2.42419 2.72489 2.60434 2.47405 2.8335 2.27295C3.03604 2.04373 3.28635 1.86168 3.56683 1.73962C3.9732 1.59298 4.40149 1.51634 4.8335 1.51295C5.50016 1.51295 5.74683 1.47295 7.50016 1.47295C9.2535 1.47295 9.50016 1.47295 10.1668 1.51295C10.59 1.5178 11.0093 1.59445 11.4068 1.73962C11.7098 1.85205 11.9817 2.03485 12.2002 2.27295C12.4186 2.47773 12.5893 2.7281 12.7002 3.00628C12.8483 3.41224 12.925 3.8408 12.9268 4.27295C12.9602 4.93962 12.9668 5.18628 12.9668 6.93962C12.9668 8.69295 12.9602 8.93962 12.9268 9.60628ZM7.50016 3.51962C6.82404 3.52093 6.16347 3.72263 5.60193 4.09923C5.04039 4.47582 4.60308 5.01041 4.34525 5.63545C4.08742 6.26049 4.02065 6.94793 4.15336 7.6109C4.28607 8.27388 4.61232 8.88264 5.09088 9.36027C5.56944 9.8379 6.17884 10.163 6.84207 10.2944C7.5053 10.4258 8.19261 10.3577 8.81714 10.0986C9.44168 9.83959 9.97541 9.40124 10.3509 8.83897C10.7264 8.2767 10.9268 7.61574 10.9268 6.93962C10.9277 6.48969 10.8396 6.04402 10.6677 5.62825C10.4957 5.21249 10.2432 4.83482 9.92474 4.51698C9.60628 4.19914 9.22813 3.9474 8.81203 3.77624C8.39593 3.60507 7.95009 3.51786 7.50016 3.51962ZM7.50016 9.15962C7.06109 9.15962 6.63187 9.02942 6.2668 8.78548C5.90172 8.54154 5.61718 8.19482 5.44915 7.78917C5.28112 7.38352 5.23716 6.93715 5.32282 6.50652C5.40848 6.07588 5.61991 5.68031 5.93039 5.36984C6.24086 5.05937 6.63642 4.84793 7.06706 4.76227C7.4977 4.67661 7.94407 4.72058 8.34972 4.8886C8.75537 5.05663 9.10209 5.34117 9.34602 5.70625C9.58996 6.07133 9.72016 6.50054 9.72016 6.93962C9.72016 7.23115 9.66274 7.51983 9.55118 7.78917C9.43961 8.05852 9.27609 8.30325 9.06994 8.50939C8.86379 8.71554 8.61906 8.87906 8.34972 8.99063C8.08038 9.10219 7.7917 9.15962 7.50016 9.15962Z" fill="white"/>
</svg>
