<svg width="12" height="12" viewBox="0 0 12 12" fill="none" xmlns="http://www.w3.org/2000/svg">
<path d="M10.8183 2.53941C10.7129 2.46053 10.5929 2.40325 10.4653 2.37084L3.5755 0.780194C3.44702 0.750532 3.31395 0.746467 3.1839 0.76823C3.05385 0.789992 2.92936 0.837158 2.81754 0.907033C2.5917 1.04815 2.43117 1.2732 2.37127 1.53268C2.34161 1.66116 2.33754 1.79422 2.3593 1.92427C2.38107 2.05432 2.42823 2.17881 2.49811 2.29064C2.63922 2.51647 2.86428 2.677 3.12375 2.73691L7.66575 3.77825L1.22906 7.80034C1.00414 7.94088 0.844271 8.16502 0.78461 8.42344C0.724949 8.68185 0.770388 8.95339 0.910932 9.17831C1.05147 9.40322 1.27561 9.5631 1.53403 9.62276C1.79245 9.68242 2.06398 9.63698 2.2889 9.49643L8.72558 5.47435L7.67046 10.0132C7.64024 10.1417 7.63576 10.2749 7.65728 10.4051C7.6788 10.5354 7.72589 10.6601 7.79585 10.772C7.86581 10.884 7.95724 10.981 8.06487 11.0574C8.1725 11.1338 8.29419 11.1882 8.42294 11.2174C8.55145 11.2476 8.68467 11.2521 8.81491 11.2306C8.94516 11.209 9.06985 11.162 9.18181 11.092C9.29376 11.022 9.39075 10.9306 9.46719 10.823C9.54363 10.7154 9.598 10.5937 9.62717 10.4649L11.2178 3.57507C11.2446 3.44617 11.2457 3.31325 11.221 3.18393C11.1768 2.92446 11.0321 2.69288 10.8183 2.53941Z" fill="white"/>
</svg>
