<svg width="23" height="20" viewBox="0 0 23 20" fill="none" xmlns="http://www.w3.org/2000/svg">
<path d="M0.5 10.2227V15.2227C0.5 15.4879 0.605357 15.7422 0.792893 15.9298C0.98043 16.1173 1.23478 16.2227 1.5 16.2227H2.5C2.5 17.0183 2.81607 17.7814 3.37868 18.344C3.94129 18.9066 4.70435 19.2227 5.5 19.2227C6.29565 19.2227 7.05871 18.9066 7.62132 18.344C8.18393 17.7814 8.5 17.0183 8.5 16.2227H14.5C14.5 17.0183 14.8161 17.7814 15.3787 18.344C15.9413 18.9066 16.7044 19.2227 17.5 19.2227C18.2956 19.2227 19.0587 18.9066 19.6213 18.344C20.1839 17.7814 20.5 17.0183 20.5 16.2227H21.5C21.7652 16.2227 22.0196 16.1173 22.2071 15.9298C22.3946 15.7422 22.5 15.4879 22.5 15.2227V3.22266C22.5 2.42701 22.1839 1.66395 21.6213 1.10134C21.0587 0.538727 20.2956 0.222656 19.5 0.222656H10.5C9.70435 0.222656 8.94129 0.538727 8.37868 1.10134C7.81607 1.66395 7.5 2.42701 7.5 3.22266V5.22266H5.5C5.03426 5.22266 4.57493 5.33109 4.15836 5.53937C3.74179 5.74766 3.37944 6.05007 3.1 6.42266L0.7 9.62266C0.670751 9.66612 0.647224 9.71318 0.63 9.76266L0.57 9.87266C0.525866 9.98418 0.502155 10.1027 0.5 10.2227ZM16.5 16.2227C16.5 16.0249 16.5586 15.8315 16.6685 15.6671C16.7784 15.5026 16.9346 15.3745 17.1173 15.2988C17.3 15.2231 17.5011 15.2033 17.6951 15.2419C17.8891 15.2805 18.0673 15.3757 18.2071 15.5155C18.347 15.6554 18.4422 15.8336 18.4808 16.0276C18.5194 16.2215 18.4996 16.4226 18.4239 16.6053C18.3482 16.7881 18.22 16.9442 18.0556 17.0541C17.8911 17.164 17.6978 17.2227 17.5 17.2227C17.2348 17.2227 16.9804 17.1173 16.7929 16.9298C16.6054 16.7422 16.5 16.4879 16.5 16.2227ZM9.5 3.22266C9.5 2.95744 9.60536 2.70309 9.79289 2.51555C9.98043 2.32801 10.2348 2.22266 10.5 2.22266H19.5C19.7652 2.22266 20.0196 2.32801 20.2071 2.51555C20.3946 2.70309 20.5 2.95744 20.5 3.22266V14.2227H19.72C19.4388 13.9133 19.0961 13.6661 18.7138 13.497C18.3315 13.3278 17.918 13.2405 17.5 13.2405C17.082 13.2405 16.6685 13.3278 16.2862 13.497C15.9039 13.6661 15.5612 13.9133 15.28 14.2227H9.5V3.22266ZM7.5 9.22266H3.5L4.7 7.62266C4.79315 7.49846 4.91393 7.39766 5.05279 7.32823C5.19164 7.2588 5.34475 7.22266 5.5 7.22266H7.5V9.22266ZM4.5 16.2227C4.5 16.0249 4.55865 15.8315 4.66853 15.6671C4.77841 15.5026 4.93459 15.3745 5.11732 15.2988C5.30004 15.2231 5.50111 15.2033 5.69509 15.2419C5.88907 15.2805 6.06725 15.3757 6.20711 15.5155C6.34696 15.6554 6.4422 15.8336 6.48079 16.0276C6.51937 16.2215 6.49957 16.4226 6.42388 16.6053C6.34819 16.7881 6.22002 16.9442 6.05557 17.0541C5.89112 17.164 5.69778 17.2227 5.5 17.2227C5.23478 17.2227 4.98043 17.1173 4.79289 16.9298C4.60536 16.7422 4.5 16.4879 4.5 16.2227ZM2.5 11.2227H7.5V14.0027C6.90983 13.4752 6.13513 13.2024 5.34469 13.2436C4.55425 13.2848 3.81212 13.6367 3.28 14.2227H2.5V11.2227Z" fill="white"/>
</svg>
