<svg width="15" height="14" viewBox="0 0 15 14" fill="none" xmlns="http://www.w3.org/2000/svg">
<path d="M6.83326 4.93962H8.16659C8.3434 4.93962 8.51297 5.00985 8.63799 5.13488C8.76302 5.2599 8.83326 5.42947 8.83326 5.60628C8.83326 5.78309 8.90349 5.95266 9.02852 6.07769C9.15354 6.20271 9.32311 6.27295 9.49992 6.27295C9.67673 6.27295 9.8463 6.20271 9.97133 6.07769C10.0964 5.95266 10.1666 5.78309 10.1666 5.60628C10.1666 5.07585 9.95588 4.56714 9.5808 4.19207C9.20573 3.817 8.69702 3.60628 8.16659 3.60628H6.83326C6.30282 3.60628 5.79411 3.817 5.41904 4.19207C5.04397 4.56714 4.83325 5.07585 4.83325 5.60628V8.27295C4.83325 8.80338 5.04397 9.31209 5.41904 9.68716C5.79411 10.0622 6.30282 10.2729 6.83326 10.2729H8.16659C8.69702 10.2729 9.20573 10.0622 9.5808 9.68716C9.95588 9.31209 10.1666 8.80338 10.1666 8.27295C10.1666 8.09614 10.0964 7.92657 9.97133 7.80154C9.8463 7.67652 9.67673 7.60628 9.49992 7.60628C9.32311 7.60628 9.15354 7.67652 9.02852 7.80154C8.90349 7.92657 8.83326 8.09614 8.83326 8.27295C8.83326 8.44976 8.76302 8.61933 8.63799 8.74435C8.51297 8.86938 8.3434 8.93962 8.16659 8.93962H6.83326C6.65644 8.93962 6.48688 8.86938 6.36185 8.74435C6.23683 8.61933 6.16659 8.44976 6.16659 8.27295V5.60628C6.16659 5.42947 6.23683 5.2599 6.36185 5.13488C6.48688 5.00985 6.65644 4.93962 6.83326 4.93962ZM7.49992 0.272949C6.18138 0.272949 4.89245 0.663942 3.79612 1.39649C2.69979 2.12903 1.84531 3.17022 1.34072 4.38839C0.836141 5.60657 0.704118 6.94701 0.961353 8.24022C1.21859 9.53342 1.85353 10.7213 2.78588 11.6537C3.71823 12.586 4.90611 13.2209 6.19932 13.4782C7.49253 13.7354 8.83297 13.6034 10.0511 13.0988C11.2693 12.5942 12.3105 11.7397 13.0431 10.6434C13.7756 9.54709 14.1666 8.25816 14.1666 6.93962C14.1666 6.06414 13.9942 5.19723 13.6591 4.38839C13.3241 3.57956 12.833 2.84463 12.214 2.22557C11.5949 1.60651 10.86 1.11545 10.0511 0.780419C9.24231 0.445388 8.3754 0.272949 7.49992 0.272949ZM7.49992 12.2729C6.44509 12.2729 5.41394 11.9602 4.53688 11.3741C3.65982 10.7881 2.97623 9.95513 2.57256 8.98059C2.1689 8.00605 2.06328 6.9337 2.26907 5.89913C2.47485 4.86457 2.98281 3.91426 3.72869 3.16838C4.47457 2.4225 5.42487 1.91455 6.45944 1.70876C7.49401 1.50297 8.56636 1.60859 9.5409 2.01226C10.5154 2.41593 11.3484 3.09951 11.9344 3.97657C12.5205 4.85364 12.8333 5.88478 12.8333 6.93962C12.8333 8.3541 12.2714 9.71066 11.2712 10.7109C10.271 11.711 8.91441 12.2729 7.49992 12.2729Z" fill="white"/>
</svg>
