<svg width="11" height="16" viewBox="0 0 11 16" fill="none" xmlns="http://www.w3.org/2000/svg">
<path d="M10.0535 6.2336C9.99234 6.14313 9.9099 6.06906 9.81342 6.01791C9.71694 5.96677 9.60936 5.9401 9.50016 5.94027H7.50016V4.60693H8.96683C9.14364 4.60693 9.31321 4.5367 9.43823 4.41167C9.56326 4.28665 9.6335 4.11708 9.6335 3.94027V1.2736C9.6335 1.09679 9.56326 0.92722 9.43823 0.802196C9.31321 0.677171 9.14364 0.606934 8.96683 0.606934H6.8335C5.80799 0.606934 4.82449 1.01431 4.09935 1.73945C3.37421 2.46459 2.96683 3.4481 2.96683 4.4736V5.94027H1.50016C1.32335 5.94027 1.15378 6.01051 1.02876 6.13553C0.903734 6.26055 0.833496 6.43012 0.833496 6.60693V9.2736C0.833496 9.45041 0.903734 9.61998 1.02876 9.745C1.15378 9.87003 1.32335 9.94027 1.50016 9.94027H2.96683V14.6069C2.96683 14.7837 3.03707 14.9533 3.16209 15.0783C3.28712 15.2034 3.45669 15.2736 3.6335 15.2736H6.8335C7.01031 15.2736 7.17988 15.2034 7.3049 15.0783C7.42992 14.9533 7.50016 14.7837 7.50016 14.6069V9.94027H8.4335C8.56702 9.9404 8.6975 9.90043 8.80804 9.82555C8.91858 9.75066 9.00409 9.64431 9.0535 9.52027L10.1202 6.8536C10.1604 6.75265 10.1754 6.64339 10.1638 6.53533C10.1522 6.42726 10.1143 6.32368 10.0535 6.2336ZM7.98016 8.60693H6.8335C6.65669 8.60693 6.48712 8.67717 6.36209 8.8022C6.23707 8.92722 6.16683 9.09679 6.16683 9.2736V13.9403H4.30016V9.2736C4.30016 9.09679 4.22992 8.92722 4.1049 8.8022C3.97988 8.67717 3.81031 8.60693 3.6335 8.60693H2.16683V7.2736H3.6335C3.81031 7.2736 3.97988 7.20336 4.1049 7.07834C4.22992 6.95331 4.30016 6.78374 4.30016 6.60693V4.4736C4.30192 3.80226 4.56939 3.15892 5.0441 2.68421C5.51881 2.2095 6.16216 1.94203 6.8335 1.94027H8.30016V3.2736H7.76683C7.54111 3.24072 7.31104 3.25452 7.09087 3.31415C6.87069 3.37378 6.66511 3.47797 6.48683 3.62027C6.37864 3.73353 6.29451 3.86753 6.23952 4.01419C6.18452 4.16085 6.15979 4.31713 6.16683 4.4736V6.60693C6.16683 6.78374 6.23707 6.95331 6.36209 7.07834C6.48712 7.20336 6.65669 7.2736 6.8335 7.2736H8.5135L7.98016 8.60693Z" fill="white"/>
</svg>
