<svg width="17" height="21" viewBox="0 0 17 21" fill="none" xmlns="http://www.w3.org/2000/svg">
<path d="M16.13 2.37248C16.0138 2.2785 15.8781 2.21175 15.7327 2.17714C15.5873 2.14253 15.4361 2.14094 15.29 2.17248C14.2214 2.39642 13.1183 2.39927 12.0486 2.18086C10.9789 1.96245 9.96525 1.52739 9.07001 0.902477C8.90261 0.786349 8.70374 0.724121 8.50001 0.724121C8.29627 0.724121 8.0974 0.786349 7.93001 0.902477C7.03476 1.52739 6.02108 1.96245 4.95137 2.18086C3.88166 2.39927 2.77857 2.39642 1.71001 2.17248C1.56394 2.14094 1.41267 2.14253 1.26731 2.17714C1.12194 2.21175 0.986181 2.2785 0.870006 2.37248C0.753985 2.46659 0.660527 2.58551 0.596498 2.72049C0.532469 2.85547 0.499498 3.00308 0.500006 3.15248V10.6025C0.499117 12.0362 0.840779 13.4494 1.49654 14.7244C2.1523 15.9994 3.10319 17.0993 4.27001 17.9325L7.92001 20.5325C8.08937 20.6531 8.2921 20.7179 8.50001 20.7179C8.70791 20.7179 8.91064 20.6531 9.08001 20.5325L12.73 17.9325C13.8968 17.0993 14.8477 15.9994 15.5035 14.7244C16.1592 13.4494 16.5009 12.0362 16.5 10.6025V3.15248C16.5005 3.00308 16.4675 2.85547 16.4035 2.72049C16.3395 2.58551 16.246 2.46659 16.13 2.37248ZM14.5 10.6025C14.5008 11.7172 14.2353 12.8161 13.7257 13.8075C13.216 14.7989 12.477 15.6543 11.57 16.3025L8.50001 18.4925L5.43001 16.3025C4.52304 15.6543 3.78399 14.7989 3.27435 13.8075C2.76472 12.8161 2.49924 11.7172 2.50001 10.6025V4.30248C4.59643 4.48191 6.69605 3.9955 8.50001 2.91248C10.304 3.9955 12.4036 4.48191 14.5 4.30248V10.6025ZM10.04 8.31248L7.35001 11.0125L6.46001 10.1125C6.2717 9.92417 6.01631 9.81838 5.75001 9.81838C5.4837 9.81838 5.22831 9.92417 5.04001 10.1125C4.8517 10.3008 4.74591 10.5562 4.74591 10.8225C4.74591 11.0888 4.8517 11.3442 5.04001 11.5325L6.64001 13.1325C6.73297 13.2262 6.84357 13.3006 6.96543 13.3514C7.08729 13.4021 7.21799 13.4283 7.35001 13.4283C7.48202 13.4283 7.61272 13.4021 7.73458 13.3514C7.85644 13.3006 7.96704 13.2262 8.06001 13.1325L11.5 9.72248C11.6883 9.53417 11.7941 9.27878 11.7941 9.01248C11.7941 8.74617 11.6883 8.49078 11.5 8.30248C11.3117 8.11417 11.0563 8.00839 10.79 8.00839C10.5237 8.00839 10.2683 8.11417 10.08 8.30248L10.04 8.31248Z" fill="white"/>
</svg>
