<svg width="17" height="20" viewBox="0 0 17 20" fill="none" xmlns="http://www.w3.org/2000/svg">
<path d="M14.8 6.31266L15.71 5.41266C15.8983 5.22435 16.0041 4.96896 16.0041 4.70266C16.0041 4.43635 15.8983 4.18096 15.71 3.99266C15.5217 3.80435 15.2663 3.69856 15 3.69856C14.7337 3.69856 14.4783 3.80435 14.29 3.99266L13.39 4.90266C11.9886 3.81851 10.2669 3.23029 8.49503 3.23029C6.72318 3.23029 5.00147 3.81851 3.60003 4.90266L2.69003 3.98266C2.5004 3.79435 2.24373 3.68909 1.97649 3.69003C1.70925 3.69097 1.45333 3.79803 1.26503 3.98766C1.07672 4.17729 0.971462 4.43395 0.972399 4.70119C0.973337 4.96843 1.0804 5.22435 1.27003 5.41266L2.19003 6.32266C1.09304 7.7202 0.497817 9.446 0.500026 11.2227C0.496761 12.4981 0.79849 13.7558 1.38005 14.8909C1.96161 16.026 2.80614 17.0057 3.84322 17.7481C4.88029 18.4905 6.07985 18.9742 7.34184 19.1589C8.60383 19.3435 9.89168 19.2237 11.098 18.8095C12.3043 18.3954 13.3941 17.6987 14.2764 16.7778C15.1588 15.8569 15.8082 14.7383 16.1705 13.5154C16.5328 12.2925 16.5974 11.0007 16.359 9.7478C16.1206 8.49485 15.5861 7.31706 14.8 6.31266ZM8.50003 17.2227C7.31334 17.2227 6.1533 16.8708 5.1666 16.2115C4.17991 15.5522 3.41087 14.6151 2.95675 13.5188C2.50262 12.4224 2.3838 11.216 2.61531 10.0521C2.84683 8.88823 3.41827 7.81913 4.25739 6.98002C5.0965 6.1409 6.1656 5.56946 7.32948 5.33794C8.49337 5.10643 9.69977 5.22525 10.7961 5.67938C11.8925 6.1335 12.8296 6.90254 13.4888 7.88923C14.1481 8.87593 14.5 10.036 14.5 11.2227C14.5 12.814 13.8679 14.3401 12.7427 15.4653C11.6174 16.5905 10.0913 17.2227 8.50003 17.2227ZM6.50003 2.22266H10.5C10.7652 2.22266 11.0196 2.1173 11.2071 1.92976C11.3947 1.74223 11.5 1.48787 11.5 1.22266C11.5 0.95744 11.3947 0.703086 11.2071 0.515549C11.0196 0.328013 10.7652 0.222656 10.5 0.222656H6.50003C6.23481 0.222656 5.98046 0.328013 5.79292 0.515549C5.60538 0.703086 5.50003 0.95744 5.50003 1.22266C5.50003 1.48787 5.60538 1.74223 5.79292 1.92976C5.98046 2.1173 6.23481 2.22266 6.50003 2.22266ZM9.50003 8.22266C9.50003 7.95744 9.39467 7.70309 9.20713 7.51555C9.0196 7.32801 8.76524 7.22266 8.50003 7.22266C8.23481 7.22266 7.98046 7.32801 7.79292 7.51555C7.60538 7.70309 7.50003 7.95744 7.50003 8.22266V10.1127C7.2736 10.3152 7.114 10.5817 7.04235 10.8769C6.97069 11.1721 6.99037 11.4821 7.09877 11.7659C7.20717 12.0497 7.39918 12.2939 7.64939 12.4662C7.89961 12.6385 8.19624 12.7307 8.50003 12.7307C8.80381 12.7307 9.10044 12.6385 9.35066 12.4662C9.60088 12.2939 9.79289 12.0497 9.90129 11.7659C10.0097 11.4821 10.0294 11.1721 9.95771 10.8769C9.88606 10.5817 9.72646 10.3152 9.50003 10.1127V8.22266Z" fill="white"/>
</svg>
