<svg width="15" height="14" viewBox="0 0 15 14" fill="none" xmlns="http://www.w3.org/2000/svg">
<path d="M14.8274 1.57309C14.8275 1.45533 14.7964 1.33966 14.7372 1.23785C14.6781 1.13604 14.593 1.05173 14.4906 0.993507C14.3883 0.935284 14.2723 0.905226 14.1545 0.906396C14.0368 0.907566 13.9215 0.939921 13.8203 1.00017C13.4301 1.23242 13.01 1.41029 12.5716 1.52883C11.9456 0.991655 11.1472 0.697702 10.3223 0.700706C9.41734 0.701748 8.54821 1.05444 7.89843 1.68429C7.24865 2.31415 6.86908 3.17188 6.83987 4.07636C5.05585 3.79187 3.43895 2.86071 2.2975 1.46045C2.22872 1.37701 2.14089 1.31133 2.04141 1.26895C1.94192 1.22657 1.83371 1.20874 1.72589 1.21695C1.61813 1.22583 1.51415 1.26081 1.42295 1.31889C1.33175 1.37697 1.25606 1.45639 1.20245 1.55029C0.927464 2.03016 0.769533 2.56812 0.741479 3.12049C0.713425 3.67286 0.816038 4.22405 1.04099 4.72932L1.03969 4.73062C0.938583 4.79289 0.855147 4.88006 0.797356 4.98379C0.739565 5.08751 0.709352 5.20433 0.709606 5.32307C0.708382 5.42103 0.714257 5.51894 0.727186 5.61604C0.795277 6.45488 1.16704 7.24008 1.77276 7.82437C1.73167 7.90266 1.70659 7.98834 1.69899 8.07643C1.69139 8.16451 1.70141 8.25323 1.72849 8.33739C1.99256 9.16016 2.55415 9.85477 3.30336 10.2853C2.54219 10.5796 1.72031 10.6823 0.910126 10.5841C0.760174 10.5653 0.608279 10.598 0.479358 10.6769C0.350437 10.7557 0.252144 10.8761 0.200603 11.0181C0.149062 11.1602 0.147333 11.3156 0.1957 11.4588C0.244067 11.6019 0.339658 11.7244 0.466793 11.8061C1.86019 12.7036 3.48258 13.1807 5.13997 13.1805C7.01948 13.2016 8.85328 12.601 10.3561 11.4721C11.859 10.3432 12.9466 8.7493 13.4498 6.93829C13.6852 6.14938 13.8054 5.3306 13.8066 4.50733C13.8066 4.46371 13.8066 4.41879 13.806 4.37387C14.154 3.99849 14.4237 3.5574 14.5991 3.07646C14.7745 2.59553 14.8521 2.08442 14.8274 1.57309ZM12.623 3.71436C12.5129 3.84459 12.4572 4.01223 12.4674 4.18246C12.4739 4.29246 12.4733 4.40313 12.4733 4.50733C12.4719 5.20302 12.3699 5.89486 12.1705 6.56137C11.7595 8.1023 10.8433 9.46072 9.5686 10.4191C8.29389 11.3775 6.73443 11.8803 5.13997 11.8472C4.56722 11.8473 3.99645 11.78 3.43945 11.6467C4.14973 11.4178 4.81385 11.0649 5.40104 10.6043C5.50919 10.5192 5.58834 10.4026 5.62763 10.2707C5.66692 10.1388 5.66443 9.99795 5.62049 9.8675C5.57655 9.73705 5.49332 9.62339 5.38223 9.54212C5.27113 9.46085 5.1376 9.41595 4.99997 9.41358C4.44586 9.40496 3.91673 9.18159 3.52406 8.79053C3.62367 8.77165 3.72263 8.74822 3.82094 8.72022C3.96495 8.67923 4.09097 8.59097 4.17871 8.46964C4.26646 8.34832 4.31082 8.201 4.30465 8.0514C4.29849 7.9018 4.24216 7.75863 4.14473 7.64494C4.0473 7.53124 3.91444 7.45365 3.76755 7.42465C3.44591 7.36113 3.14325 7.22429 2.8831 7.02477C2.62294 6.82525 2.4123 6.56842 2.26755 6.27425C2.38804 6.2907 2.50929 6.30091 2.63083 6.30485C2.77522 6.30703 2.91656 6.26324 3.03442 6.17979C3.15227 6.09634 3.24053 5.97758 3.28643 5.84066C3.33042 5.7025 3.32816 5.55377 3.27999 5.41701C3.23182 5.28026 3.14037 5.16294 3.01951 5.08285C2.72627 4.88749 2.48607 4.62246 2.32041 4.31148C2.15475 4.00051 2.06881 3.6533 2.07029 3.30095C2.07029 3.25669 2.07159 3.21241 2.07419 3.16879C3.56837 4.5623 5.50641 5.38376 7.54686 5.48845C7.64986 5.49251 7.75243 5.47311 7.84683 5.43172C7.94123 5.39033 8.02499 5.32803 8.09179 5.24952C8.15791 5.17026 8.20472 5.07673 8.22856 4.97629C8.25239 4.87586 8.25258 4.77127 8.22912 4.67075C8.19099 4.51166 8.17155 4.34866 8.17118 4.18507C8.17179 3.61476 8.39861 3.06798 8.80188 2.66471C9.20515 2.26144 9.75193 2.03462 10.3222 2.03402C10.6157 2.03323 10.9061 2.09329 11.1751 2.21038C11.4442 2.32748 11.686 2.49909 11.8854 2.71436C11.9623 2.79708 12.0591 2.85876 12.1665 2.89352C12.274 2.92828 12.3885 2.93497 12.4993 2.91295C12.7732 2.85966 13.0431 2.78788 13.3073 2.69811C13.1271 3.06676 12.8968 3.40874 12.623 3.71436Z" fill="white"/>
</svg>
