<svg width="15" height="12" viewBox="0 0 15 12" fill="none" xmlns="http://www.w3.org/2000/svg">
<path d="M9.42683 4.92693L7.42683 3.76693C7.24914 3.66195 7.04654 3.60658 6.84016 3.60658C6.63378 3.60658 6.43118 3.66195 6.2535 3.76693C6.07445 3.86787 5.92602 4.01533 5.82392 4.19371C5.72182 4.37209 5.66984 4.57476 5.6735 4.78027V7.10027C5.66984 7.30577 5.72182 7.50844 5.82392 7.68682C5.92602 7.86521 6.07445 8.01267 6.2535 8.1136C6.43118 8.21858 6.63378 8.27396 6.84016 8.27396C7.04654 8.27396 7.24914 8.21858 7.42683 8.1136L9.42683 6.9536C9.59781 6.84866 9.73903 6.70163 9.83699 6.52656C9.93496 6.35148 9.98639 6.15422 9.98639 5.9536C9.98639 5.75298 9.93496 5.55572 9.83699 5.38064C9.73903 5.20557 9.59781 5.05854 9.42683 4.9536V4.92693ZM6.9935 6.82027V5.06027L8.5135 5.94027L6.9935 6.82027ZM12.1668 0.606934H2.8335C2.30306 0.606934 1.79436 0.817647 1.41928 1.19272C1.04421 1.56779 0.833496 2.0765 0.833496 2.60693V9.2736C0.833496 9.80403 1.04421 10.3127 1.41928 10.6878C1.79436 11.0629 2.30306 11.2736 2.8335 11.2736H12.1668C12.6973 11.2736 13.206 11.0629 13.581 10.6878C13.9561 10.3127 14.1668 9.80403 14.1668 9.2736V2.60693C14.1668 2.0765 13.9561 1.56779 13.581 1.19272C13.206 0.817647 12.6973 0.606934 12.1668 0.606934ZM12.8335 9.2736C12.8335 9.45041 12.7633 9.61998 12.6382 9.74501C12.5132 9.87003 12.3436 9.94027 12.1668 9.94027H2.8335C2.65668 9.94027 2.48712 9.87003 2.36209 9.74501C2.23707 9.61998 2.16683 9.45041 2.16683 9.2736V2.60693C2.16683 2.43012 2.23707 2.26055 2.36209 2.13553C2.48712 2.0105 2.65668 1.94027 2.8335 1.94027H12.1668C12.3436 1.94027 12.5132 2.0105 12.6382 2.13553C12.7633 2.26055 12.8335 2.43012 12.8335 2.60693V9.2736Z" fill="white"/>
</svg>
